<svg xmlns="http://www.w3.org/2000/svg" width="1200" height="1400" viewBox="0 0 1200 1400"><rect width="1200" height="1400" fill="#dedbd5"/><rect x="100" y="100" width="1000" height="1200" fill="#f5f1e8" stroke="#345a57" stroke-width="8"/><g font-family="Arial,sans-serif" fill="#29312f" text-anchor="middle"><text x="600" y="300" font-size="36">TOP / UP</text><path d="M600 140l-35 60h70z" fill="#345a57"/><text x="600" y="430" font-size="62" font-weight="bold">BOOTH TEST</text><text x="600" y="495" font-size="30">NOT A CUSTOMER PHOTO</text><text x="600" y="590" font-size="28">Color / contrast / orientation</text><rect x="180" y="650" width="130" height="120" fill="#ef3c54"/><rect x="320" y="650" width="130" height="120" fill="#e7b534"/><rect x="460" y="650" width="130" height="120" fill="#378164"/><rect x="600" y="650" width="130" height="120" fill="#356bb4"/><rect x="740" y="650" width="130" height="120" fill="#9368a8"/><rect x="880" y="650" width="130" height="120" fill="#d27646"/><rect x="180" y="840" width="120" height="100" fill="rgb(0,0,0)"/><rect x="300" y="840" width="120" height="100" fill="rgb(40,40,40)"/><rect x="420" y="840" width="120" height="100" fill="rgb(80,80,80)"/><rect x="540" y="840" width="120" height="100" fill="rgb(120,120,120)"/><rect x="660" y="840" width="120" height="100" fill="rgb(160,160,160)"/><rect x="780" y="840" width="120" height="100" fill="rgb(200,200,200)"/><rect x="900" y="840" width="120" height="100" fill="rgb(240,240,240)"/><text x="600" y="1040" font-size="26">Check every gray step and color patch.</text><text x="600" y="1130" font-size="30">LEFT  /  CENTER  /  RIGHT</text><text x="600" y="1230" font-size="22">SIMULATED LAYOUT IS NOT A PHYSICAL PRINT</text></g></svg>